<svg xmlns="http://www.w3.org/2000/svg" xmlns:xlink="http://www.w3.org/1999/xlink" viewBox="0 0 500 166.33"><defs><linearGradient id="linear-gradient" x1="45.83" y1="118.82" x2="0.59" y2="40.45" gradientUnits="userSpaceOnUse"><stop offset="0" stop-color="#6abc45"/><stop offset="1" stop-color="#e7e518"/></linearGradient><linearGradient id="linear-gradient-2" x1="73.6" y1="128.18" x2="17.04" y2="30.23" gradientUnits="userSpaceOnUse"><stop offset="0" stop-color="#4bb976"/><stop offset="0.99" stop-color="#84c341"/></linearGradient><linearGradient id="linear-gradient-3" x1="108.14" y1="139.88" x2="37.45" y2="17.44" gradientUnits="userSpaceOnUse"><stop offset="0" stop-color="#71bf5e"/><stop offset="1" stop-color="#35c1d8"/></linearGradient><linearGradient id="linear-gradient-4" x1="45.39" y1="113.21" x2="7.81" y2="48.11" xlink:href="#linear-gradient"/><linearGradient id="linear-gradient-5" x1="81.91" y1="123.38" x2="31.71" y2="36.43" xlink:href="#linear-gradient-2"/><linearGradient id="linear-gradient-6" x1="151.26" y1="154.51" x2="62.9" y2="1.46" gradientUnits="userSpaceOnUse"><stop offset="0" stop-color="#2969b2"/><stop offset="0.98" stop-color="#6fcbdc"/></linearGradient><linearGradient id="linear-gradient-7" x1="118.5" y1="133.9" x2="55.74" y2="25.18" xlink:href="#linear-gradient-3"/><linearGradient id="linear-gradient-8" x1="92.27" y1="117.4" x2="49.99" y2="44.17" xlink:href="#linear-gradient-2"/><linearGradient id="linear-gradient-9" x1="60.84" y1="110.15" x2="27.08" y2="51.66" xlink:href="#linear-gradient"/><linearGradient id="linear-gradient-10" x1="431.33" y1="77.59" x2="431.33" y2="64" xlink:href="#linear-gradient"/></defs><title>Untitled-1</title><g style="isolation:isolate"><g id="Layer_1" data-name="Layer 1"><polygon points="51.41 115.6 1 122.51 1 40.22 51.41 47.13 51.41 115.6" style="fill:url(#linear-gradient)"/><polygon points="80.57 124.16 17.56 132.8 17.56 29.93 80.57 38.57 80.57 124.16" style="fill:url(#linear-gradient-2)"/><polygon points="116.85 134.85 38.09 145.66 38.09 17.07 116.85 27.88 116.85 134.85" style="fill:url(#linear-gradient-3)"/><polygon points="38.09 45.3 17.56 42.49 17.56 120.24 38.09 117.42 38.09 45.3" style="opacity:0.6000000000000001;mix-blend-mode:overlay;fill:url(#linear-gradient-4)"/><polygon points="38.09 129.98 80.57 124.16 80.57 38.57 38.09 32.75 38.09 129.98" style="opacity:0.8;mix-blend-mode:overlay;fill:url(#linear-gradient-5)"/><polygon points="162.15 148.22 63.7 161.73 63.7 1 162.15 14.5 162.15 148.22" style="fill:url(#linear-gradient-6)"/><polygon points="63.7 20.59 63.7 142.14 116.85 134.85 116.85 27.88 63.7 20.59" style="opacity:0.8;mix-blend-mode:overlay;fill:url(#linear-gradient-7)"/><polygon points="63.7 126.47 80.57 124.16 80.57 38.57 63.7 36.26 63.7 126.47" style="mix-blend-mode:overlay;fill:url(#linear-gradient-8)"/><polygon points="38.09 117.42 51.41 115.6 51.41 47.13 38.09 45.3 38.09 117.42" style="opacity:0.7000000000000001;mix-blend-mode:overlay;fill:url(#linear-gradient-9)"/><path d="M178.52,124h7.37V77.11h-7.37V68.8h31c15.16,0,22.87,7.8,22.87,18.85v2c0,11.05-8.57,18.42-22.87,18.42H198.48V124h7V132h-27Zm20-25h10.2c7.19,0,11-3.6,11-9.77V87.74c0-6.17-3.77-9.77-11-9.77h-10.2Z" style="fill:#2e7ec0"/><path d="M237,124h6.77V77.11h-7.28V68.8h18.59V124H262V132H237Z" style="fill:#2e7ec0"/><path d="M266.07,118.75V118c0-8,7.45-13.71,18.5-13.71a21.72,21.72,0,0,1,10.88,2.48v-.43c0-6.51-3.17-9.85-9.85-9.85a38.61,38.61,0,0,0-14.22,3.08L268,91.08c4.54-2.4,10.45-4.37,19.19-4.37,12.17,0,19.62,6.68,19.62,19V124h5.66V132H297.94c-.69,0-1.37-3.94-1.8-7.37a15.08,15.08,0,0,1-14,8.31C272.24,133,266.07,126.8,266.07,118.75Zm29.39-2.83v-1.37c-2.06-1.46-5.14-2.49-10.11-2.49s-7.71,2.57-7.71,5.83v.34c0,3.34,3.17,5.57,7.37,5.57C290.4,123.8,295.2,120.89,295.45,115.92Z" style="fill:#2e7ec0"/><path d="M316.53,124h6.17V96H316V87.65h15.5c.69,0,1.37,4.54,1.8,8.05a16,16,0,0,1,14.65-9c8.65,0,14.65,6.85,14.65,18.16V124h5.74V132h-17v-25.7c0-6.51-2.74-9.94-8.48-9.94s-8.57,4.46-8.82,9.34V124h5.57V132h-23Z" style="fill:#2e7ec0"/><path d="M384.12,113c.26,7.71,4.62,10.37,11,10.37a30,30,0,0,0,14.73-3.77l4.28,7.88c-5.48,3.6-10.71,5.48-19.36,5.48-11.14,0-22.19-6.25-22.19-20.56v-3.94c0-14.31,9.85-21.76,21.84-21.76,12.17,0,20.56,7.62,20.56,22.53V113Zm.17-7.62h19.28c-.25-6.25-2.66-10-9.17-10C388.4,95.36,385.06,99,384.29,105.38Z" style="fill:#2e7ec0"/><path d="M452.65,118.75V118c0-8,7.45-13.71,18.5-13.71A21.71,21.71,0,0,1,482,106.76v-.43c0-6.51-3.17-9.85-9.85-9.85A38.62,38.62,0,0,0,458,99.56l-3.43-8.48c4.54-2.4,10.45-4.37,19.19-4.37,12.17,0,19.62,6.68,19.62,19V124H499V132H484.52c-.68,0-1.37-3.94-1.8-7.37a15.08,15.08,0,0,1-14,8.31C458.82,133,452.65,126.8,452.65,118.75ZM482,115.92v-1.37c-2.06-1.46-5.14-2.49-10.11-2.49s-7.71,2.57-7.71,5.83v.34c0,3.34,3.17,5.57,7.37,5.57C477,123.8,481.78,120.89,482,115.92Z" style="fill:#2e7ec0"/><path d="M447.09,123a22.56,22.56,0,0,1-5,.51c-2.91,0-5.14-1.71-5.14-6V96.47H447.6V87.74H437V75.17a9.59,9.59,0,0,1-1.89,1.56A29.24,29.24,0,0,1,427.82,80h0c-1.76.6-2.09,2.53-2.14,3.54v4.18H419.5v8.74h6.17v21.59c0,9.77,5.83,14.91,14.91,14.91a26.64,26.64,0,0,0,8.39-1.28Z" style="fill:#2e7ec0"/><path d="M178.26,51.31h3.88V26.63h-3.88V22.25h16.33c8,0,12,4.11,12,9.93v1c0,5.82-4.51,9.7-12,9.7h-5.82v8.39h3.7v4.24H178.26Zm10.51-13.17h5.37c3.79,0,5.77-1.89,5.77-5.14v-.77c0-3.25-2-5.14-5.77-5.14h-5.37Z" style="fill:#2e7ec0"/><path d="M208.66,44.86v-2c0-7.08,5.23-11.19,11.55-11.19s11.55,4.1,11.55,11.19v2c0,7.08-5.14,11.19-11.55,11.19S208.66,51.94,208.66,44.86Zm17-.14V43c0-4-1.76-6.54-5.46-6.54S214.76,39,214.76,43v1.71c0,4,1.81,6.54,5.46,6.54S225.67,48.69,225.67,44.72Z" style="fill:#2e7ec0"/><path d="M234.61,51.31h3.25V36.56h-3.52V32.18h8.17c.45,0,.86,3.34,1,5.19,1.08-2.84,3.43-5.55,6.86-5.55a5.9,5.9,0,0,1,3.07.72l-1.4,5.73a7.82,7.82,0,0,0-2.75-.5,5.59,5.59,0,0,0-5.5,5.69v7.85h2.93v4.24H234.61Z" style="fill:#2e7ec0"/><path d="M273.45,45.53c.14,4.06,2.43,5.46,5.77,5.46A15.76,15.76,0,0,0,287,49l2.26,4.15A16.76,16.76,0,0,1,279,56c-5.87,0-11.69-3.29-11.69-10.83V43.14c0-7.53,5.19-11.46,11.51-11.46s10.82,4,10.82,11.87v2Zm.09-4h10.15c-.13-3.29-1.4-5.28-4.83-5.28C275.71,36.24,273.95,38.18,273.54,41.52Z" style="fill:#2e7ec0"/><path d="M292.31,51.31h3.57V26.63H292V22.25h9.79V51.31h3.61v4.24H292.31Z" style="fill:#2e7ec0"/><path d="M425.95,77.59a12.72,12.72,0,0,1,1.38-8.79c3-5,8.09-3.71,9.63-4.79,0,0,.59,7.61-3.49,10.15S427,76,425.95,77.59Z" style="fill:url(#linear-gradient-10)"/></g></g></svg>