<svg id="Layer_1" data-name="Layer 1" xmlns="http://www.w3.org/2000/svg" xmlns:xlink="http://www.w3.org/1999/xlink" viewBox="0 0 230 230"><defs><clipPath id="clip-path"><ellipse cx="115" cy="115" rx="114" ry="113.5" style="fill:none"/></clipPath><clipPath id="clip-path-2"><rect id="SVGID" x="7.23" y="-5.93" width="215.54" height="261.14" style="fill:none"/></clipPath></defs><title>Untitled-13</title><ellipse cx="115" cy="115" rx="114" ry="113.5" style="fill:#eb0029"/><g style="clip-path:url(#clip-path)"><g style="clip-path:url(#clip-path-2)"><path d="M84.45,121.13l-3.32,6.63L85,128s-1.93,5.25-.28,5.25,9.95,0,9.95-.83S87.49,120,87.49,120Z" style="fill:#edad4f"/><path d="M145.52,121.13l3.32,6.63L145,128s1.93,5.25.28,5.25-9.95,0-9.95-.83S142.48,120,142.48,120Z" style="fill:#edad4f"/><rect x="88.32" y="117.68" width="53.36" height="33.32" style="fill:#f9cbb7"/><path d="M88.32,127.87a16.16,16.16,0,0,0,3.69.43l3.7,2.87c1.35,3.63,11,6.4,19.29,6.4s17.94-2.77,19.29-6.4l3.7-2.87a16.16,16.16,0,0,0,3.69-.43v-3.73H88.32Z" style="fill:#f99378;opacity:0.37"/><path d="M77.15,39.53q1.26-1.85,2.68-3.57a47.4,47.4,0,0,1,36.59-17.17c26.16,0,44.6,21.06,44.6,47s-18.44,47-44.6,47a47.2,47.2,0,0,1-47.36-47s-4.78-25.45,8.09-26.3" style="fill:#edad4f"/><path d="M74.64,82.11c4,8.58,7.12,16.65,2,19.37s-12.4-2-16.35-10.62-3-17.75,2-20.46S70.69,73.53,74.64,82.11Z" style="fill:#f9b9a2"/><path d="M71.74,83.85c2.1,4.55,3.78,8.83,1.08,10.27S66.25,93,64.15,88.49s-1.61-9.41,1.08-10.85S69.65,79.29,71.74,83.85Z" style="fill:#f4a790"/><path d="M155.44,82.11c-4,8.58-7.12,16.65-2,19.37s12.4-2,16.35-10.62,3-17.75-2-20.46S159.39,73.53,155.44,82.11Z" style="fill:#f9b9a2"/><path d="M158.34,83.85c-2.1,4.55-3.78,8.83-1.08,10.27s6.58-1.08,8.67-5.63,1.61-9.41-1.08-10.85S160.43,79.29,158.34,83.85Z" style="fill:#f4a790"/><path d="M138,125H92a18.36,18.36,0,0,1-18.23-18.49l2.52-56.64A7.84,7.84,0,0,1,84.09,42h69.6l2.52,64.53A18.36,18.36,0,0,1,138,125Z" style="fill:#f9cbb7"/><ellipse cx="115" cy="122.71" rx="16.77" ry="6.77" style="fill:#f9cbb7"/><ellipse cx="115" cy="123.26" rx="19.6" ry="9.26" style="fill:#f9cbb7"/><path d="M199.91,348.47H30.09V185.41a42,42,0,0,1,39.33-41.87l4.8-.3h79.19l7,.42a42,42,0,0,1,39.46,41.87Z" style="fill:#13162b"/><polygon points="114.15 232.23 114.15 206.48 114.15 232.23 88.36 143.24 141.83 143.24 114.15 232.23" style="fill:#b5b5b5"/><path d="M88.36,143.24v-5s25.93,7.18,53.29,0v5Z" style="fill:#fff"/><polygon points="104.07 161.75 114.85 170.59 126.45 161.75 122.31 147.66 109.05 145.17 104.07 161.75" style="fill:#61130f"/><path d="M74.22,143.24,61.75,161.5H85.87L65,171.44s51,64.8,49.73,62.58-26.39-95.76-26.39-95.76Z" style="fill:#0b0f21"/><path d="M153.41,143.24l12.47,19.36H141.77l20.85,9.95c-50.66,64.4-50,63.38-48.9,61.47,1.24-2.22,28.11-95.76,28.11-95.76Z" style="fill:#0b0f21"/><path d="M88.36,143.24,97.72,172l16.85-24.32L132,172l9.67-28.74v-5s-25.34,7.74-53.29,0Z" style="fill:#fff"/><polygon points="128.39 185.24 114.85 165.07 101.03 185.24 113.99 233.32 128.39 185.24" style="fill:#61130f"/><path d="M110.74,111.56a.51.51,0,0,0-.28.93,7.56,7.56,0,0,0,9.08,0,.51.51,0,0,0-.28-.93Z" style="fill:#edac98"/><path d="M123.21,119.91c0,2.59-3.67,2.53-8.21,2.53s-8.21.06-8.21-2.53,3.67-4.69,8.21-4.69S123.21,117.32,123.21,119.91Z" style="fill:#f9b9a2"/><path d="M118.1,106c0,1.67-1.21.53-2.7.53s-2.7,1.14-2.7-.53,1.21-5.5,2.7-5.5S118.1,104.36,118.1,106Z" style="fill:#f9b9a2"/><path d="M128.71,108.15a108.53,108.53,0,0,1-13.19.81,51.52,51.52,0,0,1-14.46-2.44s7.18-.72,14.46-.72A39.62,39.62,0,0,1,128.71,108.15Z" style="fill:#61130f"/><path d="M108.49,72.23l0-.05s0-.09,0-.15.08-.28.11-.46,0-.18.06-.26l.06-.27.06-.27c0-.09,0-.18.07-.27s0-.18.07-.27a2.37,2.37,0,0,1,.08-.28,2.3,2.3,0,0,1,.08-.28c0-.09.05-.18.08-.27s.07-.17.09-.25a2.2,2.2,0,0,1,.08-.21c0-.06.05-.11.07-.14l0-.05,0,0,.13.1a1.65,1.65,0,0,1,.17.16,1.19,1.19,0,0,1,.18.24,2.39,2.39,0,0,1,.16.31,3.25,3.25,0,0,1,.11.38,2.54,2.54,0,0,1,0,.43,2.9,2.9,0,0,1-.06.44,2.33,2.33,0,0,1-.16.42,1.7,1.7,0,0,1-.24.37,1.85,1.85,0,0,1-.29.29,1.79,1.79,0,0,1-.31.19,1.42,1.42,0,0,1-.29.1,1.14,1.14,0,0,1-.24,0h-.22Z" style="fill:#f9b9a2"/><path d="M80.86,77.2a9.69,9.69,0,0,1-.14-2A12.17,12.17,0,0,1,81,73.09a9.73,9.73,0,0,1,.26-1,10.24,10.24,0,0,1,.36-1,9.08,9.08,0,0,1,1.16-2,7.54,7.54,0,0,1,1.93-1.79,7.18,7.18,0,0,1,2.72-1,7.93,7.93,0,0,1,1.46-.1l.36,0h.34l.48,0,.52.05.55.07.53.08.49.08c.66.11,1.29.24,1.93.38s1.26.3,1.87.47l.92.26.91.28c.61.2,1.21.4,1.81.62,1.2.44,2.37.92,3.53,1.46.58.27,1.15.55,1.72.85s1.13.61,1.7.94l-3.13,2.48c.08-.58.17-1.16.28-1.74s.24-1.16.37-1.75c0-.15.07-.29.11-.44l.12-.44c.08-.29.17-.59.26-.88s.19-.59.3-.88.22-.59.35-.89q.27.41.5.81c.16.27.3.55.45.82s.28.55.4.82l.19.41c.06.14.13.27.19.41.23.55.47,1.1.67,1.66s.4,1.11.57,1.67l.93,2.89L105,76.21c-.63-.06-1.27-.14-1.89-.23s-1.25-.19-1.87-.3q-1.86-.34-3.68-.8c-.61-.15-1.21-.31-1.81-.48L94,73.88c-.59-.19-1.18-.37-1.76-.57s-1.16-.4-1.72-.59l-.42-.15-.39-.14-.37-.14a4.17,4.17,0,0,0-.4-.14L88.46,72l-.11,0-.06,0h0l-.11,0a3.89,3.89,0,0,0-.43-.13,2.38,2.38,0,0,0-.9,0,3.45,3.45,0,0,0-1.12.4,7.26,7.26,0,0,0-1.25.87,13.88,13.88,0,0,0-1.25,1.21c-.41.44-.81.92-1.21,1.42S81.27,76.65,80.86,77.2Z" style="fill:#c67f02"/><path d="M103.32,81.8l-.22-.1-.62-.28-.95-.42c-.37-.16-.78-.34-1.23-.52l-.7-.27-.75-.27c-.52-.17-1.06-.34-1.62-.48l-.86-.19c-.14,0-.29-.05-.44-.08s-.29-.06-.44-.07L95,79.07l-.45,0-.45,0H93l-.21,0-.43,0-.45.05c-.15,0-.3,0-.44.07s-.3,0-.44.08l-.86.2c-.57.14-1.11.31-1.62.48l-.75.27-.7.27c-.45.18-.86.36-1.23.52l-1,.42-.62.28-.22.1.16-.19c.1-.12.25-.3.46-.51a13.46,13.46,0,0,1,1.86-1.61,13.87,13.87,0,0,1,1.4-.89,12.82,12.82,0,0,1,1.7-.79,11.51,11.51,0,0,1,2-.56l.52-.09.54-.06.28,0h.25l.49,0,.56,0,.53,0a9.9,9.9,0,0,1,1,.15,11.54,11.54,0,0,1,1.95.56,12.77,12.77,0,0,1,1.7.79,13.82,13.82,0,0,1,1.4.89,13.55,13.55,0,0,1,1.86,1.61c.21.21.36.39.46.51Z" style="fill:#edac98"/><path d="M100.09,85.26S87.7,92.44,85,88.6c0,0-1.09-2,1.77-3.34" style="fill:#edac98"/><path d="M86.26,82.89a.87.87,0,0,0,.49,1.63h13.34a.87.87,0,0,0,.49-1.63,14.21,14.21,0,0,0-14.32,0Z" style="fill:#13162b"/><path d="M107,77.73l.44-.27.42-.27a8.91,8.91,0,0,0,.77-.59,8.1,8.1,0,0,0,1.27-1.36,9.27,9.27,0,0,0,.94-1.57c.14-.28.25-.56.37-.85s.1-.29.15-.44.09-.3.13-.42v.1c0-.54.11-1.07.21-1.61.05-.27.1-.54.17-.81a8.38,8.38,0,0,1,.24-.81,8.38,8.38,0,0,1,.24.81c.07.27.12.54.17.81.1.54.16,1.07.21,1.61v.1c0,.22-.06.38-.1.56s-.09.35-.14.53a7.54,7.54,0,0,1-.39,1,7.2,7.2,0,0,1-.55.95c-.1.15-.21.3-.33.44s-.24.28-.36.41-.26.26-.4.38-.29.23-.43.34a5.45,5.45,0,0,1-.46.29,5.16,5.16,0,0,1-.49.24l-.5.19a4.67,4.67,0,0,1-.52.13,4.53,4.53,0,0,1-.53.08A4.47,4.47,0,0,1,107,77.73Z" style="fill:#f9b9a2"/><path d="M106.19,97.45l-.18.06-.53.2c-.46.18-1.12.46-1.89.85-.38.2-.8.42-1.23.67s-.87.53-1.32.84-.9.64-1.33,1c-.22.18-.43.37-.65.56s-.42.4-.62.6-.41.42-.59.64l-.28.33-.27.34a13,13,0,0,0-.95,1.39c-.15.23-.26.48-.39.71s-.22.47-.33.7a11.63,11.63,0,0,0-.48,1.35l-.09.31-.07.3-.12.57c0,.36-.11.67-.13.94l-.06.82,0-.83c0-.26,0-.59,0-1l.05-.59,0-.32.05-.33a12.11,12.11,0,0,1,.31-1.45c.08-.25.15-.52.25-.78s.19-.53.31-.8a13.92,13.92,0,0,1,.81-1.6l.24-.4.26-.39c.17-.26.36-.51.54-.76s.39-.49.58-.73.4-.47.62-.69c.42-.45.86-.87,1.29-1.27s.87-.76,1.3-1.09.84-.63,1.23-.9c.78-.53,1.46-.93,2-1.2l.58-.31.22-.11a1.25,1.25,0,1,1,1.08,2.25l-.14.06Z" style="fill:#f9b9a2"/><path d="M102.69,85.49l-.1.2c-.07.12-.17.31-.31.53A17,17,0,0,1,101,88a22.17,22.17,0,0,1-2.09,2.22c-.41.38-.85.76-1.3,1.12s-.94.72-1.44,1.06-1,.66-1.53.94l-.39.22-.4.2c-.26.13-.53.25-.79.36a14.1,14.1,0,0,1-1.56.56l-.76.19L90,95l-.68.06h-.61a5.16,5.16,0,0,1-1-.14,3.12,3.12,0,0,1-.6-.2l-.2-.09.22-.05a4.62,4.62,0,0,0,.58-.16c.24-.07.53-.18.84-.31l.49-.22.53-.27.57-.31.6-.35L92,92.15l1.35-.88,1.39-.94,1.4-.94.69-.46.68-.45c.9-.59,1.76-1.13,2.51-1.57s1.41-.8,1.87-1S102.69,85.49,102.69,85.49Z" style="fill:#f9b9a2"/><ellipse cx="85.89" cy="109.9" rx="10.8" ry="8.98" style="fill:#f9b9a2;opacity:0.6000000000000001"/><path d="M149.47,77.2c-.41-.55-.81-1.07-1.21-1.57s-.81-1-1.21-1.42A13.89,13.89,0,0,0,145.8,73a7.26,7.26,0,0,0-1.25-.87,3.45,3.45,0,0,0-1.12-.4,2.38,2.38,0,0,0-.9,0,3.89,3.89,0,0,0-.43.13l-.11,0h0L142,72l-.11,0-.45.15a4.17,4.17,0,0,0-.4.14l-.37.14-.39.14-.42.15c-.56.19-1.14.4-1.72.59s-1.17.38-1.76.57l-1.78.53c-.6.16-1.2.33-1.81.48q-1.82.46-3.68.8c-.62.11-1.24.21-1.87.3s-1.26.17-1.89.23l-4.06.41.93-2.89c.18-.56.37-1.11.57-1.67s.43-1.11.67-1.66c.06-.14.12-.28.19-.41l.19-.41c.13-.27.27-.55.4-.82s.29-.55.45-.82.32-.54.5-.81q.2.45.35.89c.11.3.2.59.3.88s.18.59.26.88l.12.44c0,.15.08.29.11.44.14.58.27,1.17.37,1.75s.2,1.16.28,1.74l-3.13-2.48c.57-.33,1.13-.64,1.7-.94s1.14-.58,1.72-.85c1.16-.54,2.34-1,3.53-1.46.6-.22,1.2-.42,1.81-.62l.91-.28.92-.26c.62-.17,1.25-.33,1.87-.47s1.27-.27,1.93-.38l.49-.08.53-.08.55-.07.52-.05.48,0h.34l.36,0a7.93,7.93,0,0,1,1.46.1,7.18,7.18,0,0,1,2.72,1A7.54,7.54,0,0,1,147.6,69a9.08,9.08,0,0,1,1.16,2,10.24,10.24,0,0,1,.36,1,9.73,9.73,0,0,1,.26,1,12.17,12.17,0,0,1,.23,2.07A9.69,9.69,0,0,1,149.47,77.2Z" style="fill:#c67f02"/><path d="M127,81.8l.16-.19c.1-.12.25-.3.46-.51a13.55,13.55,0,0,1,1.86-1.61,13.82,13.82,0,0,1,1.4-.89,12.77,12.77,0,0,1,1.7-.79,11.54,11.54,0,0,1,1.95-.56,9.9,9.9,0,0,1,1-.15l.53,0,.56,0,.49,0h.25l.28,0,.54.06.52.09a11.51,11.51,0,0,1,2,.56,12.82,12.82,0,0,1,1.7.79,13.86,13.86,0,0,1,1.4.89,13.46,13.46,0,0,1,1.86,1.61c.21.21.36.39.46.51l.16.19-.22-.1-.62-.28-1-.42c-.37-.16-.78-.34-1.23-.52l-.7-.27-.75-.27c-.52-.17-1.06-.34-1.62-.48l-.86-.2c-.14,0-.29,0-.44-.08s-.29-.06-.44-.07l-.45-.05-.43,0-.21,0h-1.16l-.45,0-.45,0-.45.05c-.15,0-.3,0-.44.07s-.3,0-.44.08l-.86.19c-.57.14-1.11.31-1.62.48l-.75.27-.7.27c-.45.18-.86.36-1.23.52l-.95.42-.62.28Z" style="fill:#edac98"/><path d="M130.24,85.26s12.39,7.18,15.11,3.34c0,0,1.09-2-1.77-3.34" style="fill:#edac98"/><path d="M144.07,82.89a.87.87,0,0,1-.49,1.63H130.24a.87.87,0,0,1-.49-1.63,14.21,14.21,0,0,1,14.32,0Z" style="fill:#13162b"/><path d="M123.33,77.73a4.47,4.47,0,0,1-.52,0,4.53,4.53,0,0,1-.53-.08,4.67,4.67,0,0,1-.52-.13l-.5-.19a5.16,5.16,0,0,1-.49-.24,5.45,5.45,0,0,1-.46-.29c-.15-.11-.3-.22-.43-.34s-.27-.25-.4-.38-.25-.27-.36-.41-.22-.29-.33-.44a7.2,7.2,0,0,1-.55-.95,7.53,7.53,0,0,1-.39-1c-.05-.17-.1-.35-.14-.53s-.07-.35-.1-.56v-.1c0-.54.11-1.07.21-1.61.05-.27.1-.54.17-.81a8.38,8.38,0,0,1,.24-.81,8.39,8.39,0,0,1,.24.81c.07.27.12.54.17.81.1.54.16,1.07.21,1.61V72c0,.11.08.28.13.42s.1.29.15.44.23.57.37.85a9.27,9.27,0,0,0,.94,1.57,8.1,8.1,0,0,0,1.27,1.36,8.9,8.9,0,0,0,.77.59l.42.27Z" style="fill:#f9b9a2"/><path d="M125.06,95.14l.22.11.58.31c.49.27,1.17.67,2,1.2.39.27.8.56,1.23.9s.86.69,1.3,1.09.87.82,1.29,1.27c.21.22.41.46.62.69s.4.48.58.73.38.5.54.76l.26.39.24.4a13.92,13.92,0,0,1,.81,1.6c.12.26.21.54.31.8s.17.53.25.78a12.11,12.11,0,0,1,.31,1.45l.05.33,0,.32.05.59c0,.37,0,.69,0,1l0,.83-.06-.82c0-.26-.08-.58-.13-.94l-.12-.57-.07-.3-.09-.31a11.63,11.63,0,0,0-.48-1.35c-.11-.23-.2-.47-.33-.7s-.24-.48-.39-.71a13,13,0,0,0-.95-1.39l-.27-.34-.28-.33c-.18-.22-.39-.43-.59-.64s-.42-.4-.62-.6-.43-.39-.65-.56c-.44-.36-.89-.7-1.33-1s-.89-.59-1.32-.84-.84-.47-1.23-.67c-.77-.39-1.43-.67-1.89-.85l-.53-.2-.18-.06h0a1.25,1.25,0,1,1,.78-2.37Z" style="fill:#f9b9a2"/><path d="M127.64,85.49s.28.13.75.37,1.12.6,1.87,1,1.61,1,2.51,1.57l.68.45.69.46,1.4.94,1.39.94,1.35.88,1.27.79.6.35.57.31.53.27.49.22c.31.12.6.24.84.31a4.62,4.62,0,0,0,.58.16l.22.05-.2.09a3.12,3.12,0,0,1-.6.2,5.16,5.16,0,0,1-1,.14H141l-.68-.06-.72-.12-.76-.19a14.1,14.1,0,0,1-1.56-.56c-.26-.11-.53-.23-.79-.36l-.4-.2-.39-.22c-.53-.28-1-.61-1.53-.94s-1-.69-1.44-1.06-.9-.74-1.3-1.12A22.17,22.17,0,0,1,129.33,88a17,17,0,0,1-1.27-1.76c-.14-.22-.24-.41-.31-.53Z" style="fill:#f9b9a2"/><ellipse cx="144.44" cy="109.9" rx="10.8" ry="8.98" style="fill:#f9b9a2;opacity:0.6000000000000001"/><path d="M121.76,72.78h-.22a1.14,1.14,0,0,1-.24,0,1.42,1.42,0,0,1-.29-.1,1.79,1.79,0,0,1-.31-.19,1.85,1.85,0,0,1-.29-.29,1.7,1.7,0,0,1-.24-.37,2.33,2.33,0,0,1-.16-.42,2.9,2.9,0,0,1-.06-.44,2.54,2.54,0,0,1,0-.43,3.26,3.26,0,0,1,.11-.38,2.39,2.39,0,0,1,.16-.31,1.19,1.19,0,0,1,.18-.24,1.65,1.65,0,0,1,.17-.16l.13-.1,0,0,0,.05s0,.09.07.14a2.2,2.2,0,0,1,.08.21c0,.08.06.16.09.25s.06.18.08.27a2.3,2.3,0,0,1,.08.28,2.36,2.36,0,0,1,.08.28c0,.09.05.18.07.27s0,.18.07.27l.06.27.06.27c0,.09,0,.18.06.26s.08.33.11.46,0,.12,0,.15Z" style="fill:#f9b9a2"/><path d="M121.44,94.8c0,4.3-2.68,7.78-6,7.78s-6-3.48-6-7.78S111.69,78.26,116,78.6C119.59,78.89,121.44,90.5,121.44,94.8Z" style="fill:#e58d7f"/><ellipse cx="120.49" cy="96.29" rx="4.05" ry="5.26" style="fill:#e58d7f"/><ellipse cx="110.23" cy="96.29" rx="4.05" ry="5.26" style="fill:#e58d7f"/><path d="M74.64,82.11v10h3.18s-2.49-43.93.55-47.8l-5.8,3.59Z" style="fill:#edad4f"/><path d="M155.75,82.11v10h-3.18s2.49-43.93-.55-47.8l5.8,3.59Z" style="fill:#edad4f"/><path d="M76.31,42s32.36,38.11,104.48,17.8c0,0-7-1.66-9.53-3.73A32.77,32.77,0,0,0,182,54.85s-27.77-26.11-39-31.08S93.75,5.12,76.31,42Z" style="fill:#edad4f"/><ellipse cx="119.04" cy="100" rx="3.19" ry="1.47" transform="translate(-12.73 17.49) rotate(-7.98)" style="fill:#13162b"/><ellipse cx="112.11" cy="100" rx="1.47" ry="3.19" transform="translate(-2.48 197.14) rotate(-82.02)" style="fill:#13162b"/><path d="M85.88,36.61s0-.08.11-.23a5.39,5.39,0,0,1,.39-.63,8.86,8.86,0,0,1,2-2,11.32,11.32,0,0,1,4.12-1.86,14.8,14.8,0,0,1,2.79-.39c.49,0,1,0,1.52,0l.79,0,.8.08a28,28,0,0,1,6.69,1.69,45,45,0,0,1,6.83,3.31c.57.32,1.13.67,1.69,1l.84.53.83.56,3.26,2.22c.28.2.54.35.81.52l.8.5.8.5.84.49c1.1.67,2.26,1.27,3.4,1.87,2.3,1.2,4.69,2.24,7.07,3.2.6.23,1.19.48,1.79.68s1.19.45,1.79.65l1.78.6,1.77.56c2.35.71,4.66,1.32,6.87,1.83,1.1.27,2.19.49,3.24.71l1.55.31,1.5.27c2,.35,3.78.62,5.4.84s3,.38,4.21.5,2.1.21,2.74.25l1,.07s-.33.09-1,.22-1.55.31-2.74.47-2.63.32-4.3.42-3.55.15-5.61.11-4.29-.19-6.65-.47a71.52,71.52,0,0,1-7.36-1.26l-1.91-.46-1.92-.53c-1.29-.38-2.59-.78-3.87-1.25a64.57,64.57,0,0,1-7.64-3.29c-1.23-.66-2.46-1.32-3.65-2.06l-.9-.54-.88-.59-.88-.59c-.29-.2-.59-.39-.85-.59l-1.6-1.17-1.56-1.19-.75-.57-.76-.54c-.51-.36-1-.74-1.51-1.07a54.3,54.3,0,0,0-6-3.61,29.69,29.69,0,0,0-5.72-2.28,16.41,16.41,0,0,0-5.08-.65,11.14,11.14,0,0,0-3.9.83,11.44,11.44,0,0,0-1.36.69,8.85,8.85,0,0,0-.93.66A5.78,5.78,0,0,0,85.88,36.61Z" style="fill:#f2c78f"/><path d="M95.39,28.46s.22-.13.65-.35a18.17,18.17,0,0,1,1.94-.8,23.8,23.8,0,0,1,3.17-.86,26.51,26.51,0,0,1,4.27-.5,28.69,28.69,0,0,1,5.13.27c.91.13,1.83.31,2.77.53s1.89.5,2.84.82,1.9.7,2.85,1.12,1.89.88,2.81,1.4,1.83,1.07,2.72,1.65,1.75,1.22,2.59,1.87c.42.33.83.66,1.25,1l.58.46.27.21.26.2c.73.54,1.5,1.06,2.27,1.53a34.09,34.09,0,0,0,4.8,2.41c.81.33,1.63.64,2.44.91l1.21.38,1.2.35c1.59.43,3.13.79,4.57,1.06.72.14,1.42.27,2.09.37s1.31.2,1.91.29c1.21.17,2.28.29,3.16.38l2.08.2.75.06-.17.08-.52.22a20.66,20.66,0,0,1-2,.69,28.38,28.38,0,0,1-3.23.73c-.63.11-1.31.19-2,.27s-1.48.12-2.27.15a31.68,31.68,0,0,1-5.16-.27l-1.39-.22c-.47-.08-.94-.19-1.42-.3s-1-.23-1.44-.37-1-.29-1.45-.46a27.13,27.13,0,0,1-5.72-2.75,25.14,25.14,0,0,1-2.66-1.95l-.33-.28-.31-.27-.58-.53c-.36-.33-.71-.65-1.08-1a44.81,44.81,0,0,0-4.56-3.48A37.48,37.48,0,0,0,114.8,31c-.82-.38-1.63-.72-2.45-1s-1.62-.58-2.42-.81a31.83,31.83,0,0,0-8.64-1.28,29.79,29.79,0,0,0-3.15.14c-.88.08-1.57.19-2,.28S95.39,28.46,95.39,28.46Z" style="fill:#f2c78f"/><path d="M100.68,125.56s.43.23,1.19.57a31.63,31.63,0,0,0,3.18,1.22c.66.22,1.38.42,2.15.61s1.58.36,2.42.49c.21,0,.42.06.64.09l.65.09c.44,0,.87.1,1.32.12l.67,0,.67,0c.45,0,.9,0,1.35,0s.9,0,1.35-.06l1.34-.12,1.32-.18,1.28-.22,1.24-.26,1.18-.29c.39-.08.76-.21,1.12-.31s.72-.19,1-.31c.67-.21,1.29-.39,1.84-.59s1-.34,1.42-.49l.93-.32.33-.11-.26.23c-.17.15-.42.37-.76.63s-.75.57-1.24.91c-.25.17-.5.35-.79.52l-.91.53c-.31.19-.66.36-1,.54l-.54.27-.57.26-1.21.49-1.3.43c-.45.13-.91.24-1.37.36s-.95.19-1.43.28-1,.14-1.47.19-1,.08-1.5.09-1,0-1.5,0l-.75,0-.74-.08a19.2,19.2,0,0,1-2.84-.55,20.09,20.09,0,0,1-2.55-.87,19.33,19.33,0,0,1-2.14-1.08,15.85,15.85,0,0,1-2.86-2.11c-.31-.29-.54-.54-.69-.71S100.68,125.56,100.68,125.56Z" style="fill:#f9b9a2"/><path d="M52.17,324.23H30.78l15.41-107,4.27,19a72.08,72.08,0,0,1,1.71,15.72Z" style="fill:#0b0f21"/><path d="M176.7,324.23h21.39l-15.41-107-4.27,19a72.08,72.08,0,0,0-1.71,15.72Z" style="fill:#0b0f21"/><path d="M33.72,170.36s-21.33,77-20.14,154.21H48l8.45-142.13" style="fill:#13162b"/><path d="M196.45,173.13s21.33,74.2,20.14,151.45h-34.4l-8.45-142.13" style="fill:#13162b"/></g></g></svg>