<svg id="Layer_1" data-name="Layer 1" xmlns="http://www.w3.org/2000/svg" xmlns:xlink="http://www.w3.org/1999/xlink" viewBox="0 0 230 230"><defs><clipPath id="clip-path"><ellipse cx="115" cy="115" rx="114" ry="113.5" style="fill:none"/></clipPath><clipPath id="clip-path-2"><rect x="-4.11" y="21.85" width="238.23" height="226.35" style="fill:none"/></clipPath></defs><title>Untitled-1</title><ellipse cx="115" cy="115" rx="114" ry="113.5" style="fill:#003594"/><g style="clip-path:url(#clip-path)"><g style="clip-path:url(#clip-path-2)"><path d="M189,361.23H43.66l5.5-152c0-26.09-5.8-47.25,38.74-47.25h56.9c47,0,38.74,21.15,38.74,47.25Z" style="fill:#13162b"/><polygon points="116.65 239.83 116.65 239.83 116.65 239.83 98.21 169.93 134.5 169.93 116.65 239.83" style="fill:#2b3361"/><path d="M70.44,322.33H46.8L63.83,204l4.72,21a79.66,79.66,0,0,1,1.89,17.37Z" style="fill:#0b0f21"/><path d="M162.26,322.33H185.9L168.88,204l-4.72,21a79.66,79.66,0,0,0-1.89,17.37Z" style="fill:#0b0f21"/><path d="M178.37,199.39h0a3.28,3.28,0,0,1-1.53,1.52L163,207.55a3.28,3.28,0,0,0-1.86,3.1l5.28,127.63a3.28,3.28,0,0,0,3.28,3.15h26a3.29,3.29,0,0,0,3.29-3.26c.45-56.66-10-115.55-14.46-138A3.28,3.28,0,0,0,178.37,199.39Z" style="fill:#13162b"/><path d="M67,108.8s-2.8,36.74,34.49,43.5c0,0,64.5,17.34,63.65-62.3" style="fill:#edad4f"/><path d="M77.21,118.19S75,144.81,104.53,149.71c0,0,51.07,12.56,50.4-45.15" style="fill:#c67f02;opacity:0.66"/><path d="M95.59,166A29.29,29.29,0,0,0,136,164.92V136.18H95.59Z" style="fill:#f9cbb7"/><ellipse cx="114.75" cy="81.57" rx="51.75" ry="52.06" style="fill:#edad4f"/><path d="M95.59,149.51c5.67,2.89,13.06,6.74,20.07,6.74,7.93,0,14.16-4.3,20.34-7.95V122.16H95.59Z" style="fill:#f99378;opacity:0.37"/><path d="M79.91,102.29c2.31,9.85,4,18.93-1.06,20.11s-11-5.84-13.31-15.69-.09-18.79,4.95-20S77.6,92.44,79.91,102.29Z" style="fill:#f9b9a2"/><path d="M149.74,102.29c-2.31,9.85-4,18.93,1.06,20.11s11-5.84,13.31-15.69.09-18.79-4.95-20S152,92.44,149.74,102.29Z" style="fill:#f9b9a2"/><path d="M152.65,103.15c-1.22,5.22-2.11,10,.56,10.67s5.83-3.1,7.06-8.32.05-10-2.62-10.59S153.87,97.93,152.65,103.15Z" style="fill:#f4a790"/><path d="M76.54,103.15c1.22,5.22,2.11,10-.56,10.67s-5.83-3.1-7.06-8.32-.05-10,2.62-10.59S75.32,97.93,76.54,103.15Z" style="fill:#f4a790"/><path d="M154.51,95.9c0,28-16.25,50.69-39.68,50.69S75.14,123.9,75.14,95.9s-.81-50.69,39.68-50.69C153.14,45.21,154.51,67.91,154.51,95.9Z" style="fill:#f9cbb7"/><path d="M122.39,138.89c0,3-3.39,3.84-7.57,3.84s-7.57-.88-7.57-3.84,3.39-5.37,7.57-5.37S122.39,135.92,122.39,138.89Z" style="fill:#f9b9a2"/><ellipse cx="91.54" cy="105.39" rx="11.94" ry="9.92" style="fill:#f9b9a2;opacity:0.37"/><ellipse cx="137.73" cy="105.39" rx="11.94" ry="9.92" style="fill:#f9b9a2;opacity:0.37"/><path d="M125.74,109.88l.17.14.54.41c.48.35,1.18.84,2.07,1.37.45.26.93.54,1.46.8s1.1.52,1.69.77a19.49,19.49,0,0,0,1.88.65,16.69,16.69,0,0,0,2,.45c.34,0,.68.11,1,.12l.51,0h.51a12.72,12.72,0,0,0,2-.13c.32,0,.63-.12.94-.18l.89-.24c.29-.09.56-.2.83-.29s.51-.23.75-.33a6.36,6.36,0,0,0,.68-.35c.21-.12.42-.22.6-.34.36-.24.68-.44.93-.64l.78-.61-.7.7c-.22.22-.53.46-.86.75-.17.14-.37.27-.57.42a6.65,6.65,0,0,1-.65.44c-.24.14-.47.3-.74.44s-.54.28-.83.41-.59.25-.91.37-.64.22-1,.31a13.73,13.73,0,0,1-2.12.39l-.55.05-.56,0c-.37,0-.75,0-1.12,0a18.19,18.19,0,0,1-2.23-.23,21.23,21.23,0,0,1-2.12-.45c-.68-.19-1.33-.39-1.93-.61s-1.17-.45-1.69-.67c-1-.46-1.86-.9-2.44-1.23l-.67-.4-.25-.16a1.38,1.38,0,0,1,1.49-2.31l.13.09Z" style="fill:#f9b9a2"/><path d="M105.21,112.08l-.25.16-.67.4c-.58.33-1.41.77-2.44,1.23-.52.22-1.08.46-1.69.67s-1.26.42-1.93.61a21.23,21.23,0,0,1-2.12.45,18.19,18.19,0,0,1-2.23.23c-.38,0-.75,0-1.12,0l-.56,0-.55-.05a13.73,13.73,0,0,1-2.12-.39c-.34-.09-.66-.21-1-.31s-.61-.25-.91-.37-.56-.28-.83-.41-.5-.3-.74-.44a6.65,6.65,0,0,1-.65-.44c-.2-.15-.4-.28-.57-.42-.33-.29-.64-.53-.86-.75l-.7-.7.78.61c.25.19.57.39.93.64.18.12.39.22.6.34a6.36,6.36,0,0,0,.68.35c.24.11.49.24.75.33s.54.2.83.29l.89.24c.31.06.62.13.94.18a12.72,12.72,0,0,0,2,.13h.51l.51,0c.34,0,.68-.08,1-.12a16.69,16.69,0,0,0,2-.45,19.49,19.49,0,0,0,1.88-.65c.6-.25,1.17-.5,1.69-.77s1-.54,1.46-.8c.89-.53,1.59-1,2.07-1.37l.54-.41.17-.14h0a1.38,1.38,0,0,1,1.76,2.12Z" style="fill:#f9b9a2"/><path d="M110.19,127.29a.56.56,0,0,0-.31,1,8.36,8.36,0,0,0,10,0,.56.56,0,0,0-.31-1Z" style="fill:#edac98"/><path d="M138.53,115.92v.2l0,.52c0,.45,0,1.07,0,1.82a28,28,0,0,1-.74,5.42c-.12.48-.25,1-.4,1.42s-.31.92-.49,1.34c-.09.21-.18.42-.27.62s-.19.4-.29.59c-.19.38-.39.72-.59,1s-.39.58-.57.82-.35.43-.48.6l-.45.49.35-.56c.1-.19.23-.4.36-.66s.27-.55.4-.89.27-.69.38-1.08c.06-.19.12-.39.17-.6s.1-.41.15-.63c.1-.43.17-.88.23-1.33s.1-.92.14-1.39a26.15,26.15,0,0,0-.21-5.1c-.09-.69-.2-1.25-.28-1.64l-.1-.44,0-.14a1.38,1.38,0,1,1,2.72-.43Z" style="fill:#f9b9a2"/><path d="M94.08,116.34l0,.14-.1.44c-.08.39-.18,1-.28,1.64a26.15,26.15,0,0,0-.21,5.1c0,.46.07.93.14,1.39s.14.9.23,1.33c0,.22.09.43.15.63s.11.41.17.6c.11.39.25.75.38,1.08s.27.62.4.89.26.48.36.66l.35.56-.45-.49c-.13-.17-.3-.36-.48-.6s-.37-.51-.57-.82-.4-.65-.59-1c-.1-.19-.19-.38-.29-.59s-.19-.41-.27-.62c-.18-.43-.34-.88-.49-1.34s-.28-.94-.4-1.42a28,28,0,0,1-.74-5.42c0-.75,0-1.38,0-1.82l0-.52v-.2h0a1.38,1.38,0,1,1,2.75.18A1.48,1.48,0,0,1,94.08,116.34Z" style="fill:#f9b9a2"/><path d="M124.52,80.7l.28-.06.81-.16c.69-.12,1.66-.3,2.85-.46.59-.08,1.23-.16,1.91-.23s1.4-.14,2.16-.19,1.53-.09,2.33-.11h1.22l1.25,0c.42,0,.85.08,1.27.12s.88.14,1.31.22l.69.19.37.11.26.11.52.22.56.25c.72.33,1.36.68,2,1s1.15.7,1.64,1,.94.65,1.32.95l1,.77c.27.21.47.4.62.52l.22.19a.45.45,0,0,1-.48.75h0l-.25-.11-.72-.3c-.62-.26-1.51-.6-2.59-1-.54-.18-1.12-.37-1.73-.55s-1.27-.34-1.92-.48l-.48-.09-.54-.09-.28,0h-.18l-.42,0c-.32,0-.64,0-1,.05s-.68.07-1,.13l-1.06.17-1.06.21-1.05.23-1,.25c-.67.17-1.33.33-1.95.5l-1.75.48c-1.08.31-2,.56-2.6.76l-1,.29h0a2.95,2.95,0,0,1-1.7-5.65Z" style="fill:#c67f02"/><path d="M125.34,95.06l.15-.2c.1-.13.24-.32.44-.55a13.7,13.7,0,0,1,3.22-2.74,12.16,12.16,0,0,1,1.72-.88,11.12,11.12,0,0,1,2-.63,9.69,9.69,0,0,1,1.08-.17c.18,0,.37,0,.55,0l.59,0,.51,0h.26l.29,0c.19,0,.39,0,.57.07l.54.1a11.1,11.1,0,0,1,2,.63c.32.12.61.27.9.42s.56.3.82.46a13.5,13.5,0,0,1,1.4,1,13.26,13.26,0,0,1,1.82,1.75c.2.22.34.42.44.55l.15.2-.23-.11-.63-.31-1-.47c-.37-.18-.78-.37-1.24-.57-.23-.1-.46-.2-.71-.3l-.76-.3c-.52-.2-1.07-.38-1.64-.54a15.49,15.49,0,0,0-1.76-.38l-.45-.06L136,92l-.21,0h-1.17a4.28,4.28,0,0,0-.45,0l-.45,0-.45.06a15.41,15.41,0,0,0-1.76.38c-.29.07-.56.18-.84.25l-.8.28-.76.3c-.25.09-.48.2-.71.3-.45.2-.87.39-1.24.57l-1,.47-.63.31Z" style="fill:#edac98"/><path d="M128.6,98.88s12.51,7.93,15.26,3.69c0,0,1.1-2.2-1.78-3.69" style="fill:#edac98"/><path d="M142.57,96.26a1,1,0,0,1-.49,1.8H128.6a1,1,0,0,1-.49-1.8,13.29,13.29,0,0,1,14.46,0Z" style="fill:#13162b"/><path d="M144.52,96.09l-.21,0-.58-.1-2-.35-1.3-.2-.7-.1-.73-.09c-.49,0-1-.09-1.51-.12l-.77,0h-.79l-1.59,0c-.52,0-1,0-1.53.07s-1,.08-1.41.15-.86.14-1.24.23a7.23,7.23,0,0,0-1.79.67c-.2.12-.37.22-.48.3l-.17.12.08-.2a3.41,3.41,0,0,1,.29-.53,4.47,4.47,0,0,1,.61-.73,5.86,5.86,0,0,1,1-.75,7.94,7.94,0,0,1,1.31-.64,10.57,10.57,0,0,1,1.54-.47A14.28,14.28,0,0,1,134.2,93c.57-.06,1.14-.1,1.73-.11a12.94,12.94,0,0,1,1.76.08,13.16,13.16,0,0,1,1.68.31,13.66,13.66,0,0,1,1.51.49l.67.29.61.3a11.24,11.24,0,0,1,1.76,1.15c.2.15.35.29.45.38Z" style="fill:#13162b"/><path d="M123.41,89.64l-.58,0a2.68,2.68,0,0,1-.57-.07l-.59-.14a5.52,5.52,0,0,1-.56-.22l-.28-.12c-.09,0-.17-.1-.26-.15l-.52-.32-.48-.38a4.18,4.18,0,0,1-.44-.42l-.21-.22-.19-.24a5.85,5.85,0,0,1-.36-.49c-.11-.17-.22-.34-.32-.52s-.19-.36-.27-.54-.16-.37-.23-.56-.14-.37-.19-.57-.1-.39-.14-.58-.07-.39-.1-.62v-.1c.06-.59.13-1.19.23-1.78,0-.3.11-.59.17-.89s.14-.59.24-.89c.1.3.17.59.24.89s.13.59.17.89c.1.59.18,1.19.23,1.78v-.1c0,.13.1.31.15.46s.12.32.18.48.13.32.2.47l.22.46.24.45c.08.15.17.29.26.44s.18.28.27.42l.14.21.15.2c.11.13.2.28.31.4l.33.38.37.36a3.8,3.8,0,0,0,.39.35c.14.11.27.24.41.34l.43.31a4,4,0,0,0,.47.31C123.09,89.42,123.25,89.53,123.41,89.64Z" style="fill:#f9b9a2"/><path d="M103.66,86.4l-1-.29c-.62-.19-1.52-.45-2.6-.76l-1.75-.48c-.62-.17-1.27-.33-1.95-.5l-1-.25-1.05-.23-1.06-.21-1.06-.17c-.35-.06-.69-.08-1-.13s-.65,0-1-.05l-.42,0h-.18l-.28,0-.54.09-.48.09c-.65.14-1.31.3-1.92.48s-1.2.37-1.73.55c-1.07.37-2,.71-2.59,1l-.72.3-.25.11h0a.45.45,0,0,1-.48-.75l.22-.19c.14-.12.35-.3.62-.52l1-.77c.39-.29.83-.61,1.32-.95s1-.69,1.64-1,1.24-.7,2-1l.56-.25.52-.22.26-.11.37-.11.69-.19c.44-.08.88-.16,1.31-.22s.86-.09,1.27-.12l1.25,0h1.22c.8,0,1.58.06,2.33.11s1.47.12,2.16.19,1.32.15,1.91.23c1.18.16,2.16.34,2.85.46l.81.16.28.06a2.95,2.95,0,0,1-1.2,5.77l-.24-.06Z" style="fill:#c67f02"/><path d="M104.31,95.06l-.23-.11-.63-.31-1-.47c-.37-.18-.78-.37-1.24-.57-.23-.1-.46-.21-.71-.3l-.76-.3-.8-.28c-.28-.08-.55-.18-.84-.25a15.41,15.41,0,0,0-1.76-.38L95.94,92l-.45,0A4.28,4.28,0,0,0,95,92H93.86l-.21,0-.43,0-.45.06a15.49,15.49,0,0,0-1.76.38c-.57.16-1.12.34-1.64.54l-.76.3c-.25.09-.48.2-.71.3-.45.2-.87.39-1.24.57l-1,.47-.63.31-.23.11.15-.2c.1-.13.24-.32.44-.55a13.26,13.26,0,0,1,1.82-1.75,13.5,13.5,0,0,1,1.4-1c.26-.17.54-.31.82-.46s.59-.29.9-.42a11.1,11.1,0,0,1,2-.63l.54-.1c.18,0,.38,0,.57-.07l.29,0H94l.51,0,.59,0c.19,0,.37,0,.55,0a9.69,9.69,0,0,1,1.08.17,11.12,11.12,0,0,1,2,.63,12.16,12.16,0,0,1,1.72.88,13.7,13.7,0,0,1,3.22,2.74c.2.23.34.42.44.55Z" style="fill:#edac98"/><path d="M101,98.88s-12.51,7.93-15.26,3.69c0,0-1.1-2.2,1.78-3.69" style="fill:#edac98"/><path d="M87.07,96.26a1,1,0,0,0,.49,1.8H101a1,1,0,0,0,.49-1.8,13.29,13.29,0,0,0-14.46,0Z" style="fill:#13162b"/><path d="M85.13,96.09l.15-.14c.1-.09.25-.23.45-.38a11.24,11.24,0,0,1,1.76-1.15l.61-.3.67-.29a13.66,13.66,0,0,1,1.51-.49A13.16,13.16,0,0,1,92,93a12.94,12.94,0,0,1,1.76-.08c.59,0,1.16,0,1.73.11a14.28,14.28,0,0,1,1.67.28,10.57,10.57,0,0,1,1.54.47,7.94,7.94,0,0,1,1.31.64,5.85,5.85,0,0,1,1,.75,4.47,4.47,0,0,1,.61.73,3.41,3.41,0,0,1,.29.53l.08.2-.17-.12c-.11-.08-.28-.18-.48-.3a7.23,7.23,0,0,0-1.79-.67c-.38-.09-.8-.17-1.24-.23s-.92-.11-1.41-.15-1-.06-1.53-.07l-1.59,0h-.79l-.77,0c-.51,0-1,.07-1.51.12l-.73.09-.7.1-1.3.2-2,.35-.58.1Z" style="fill:#13162b"/><path d="M106.23,89.64l.49-.3.46-.3a9.84,9.84,0,0,0,.85-.65,9,9,0,0,0,1.4-1.5,10.25,10.25,0,0,0,1-1.74c.15-.3.28-.62.4-.94.06-.16.11-.32.17-.48s.1-.34.14-.46v.11c0-.59.12-1.19.23-1.78.06-.3.12-.59.19-.89a9.26,9.26,0,0,1,.27-.89,9.26,9.26,0,0,1,.27.89c.08.3.14.59.19.89.11.59.18,1.19.23,1.78v.11c0,.24-.07.42-.11.62s-.1.39-.16.58a8.33,8.33,0,0,1-.44,1.12,8,8,0,0,1-.6,1c-.11.17-.23.33-.36.49s-.26.31-.4.45-.29.29-.44.42-.32.25-.48.37a6,6,0,0,1-.51.32,5.7,5.7,0,0,1-.54.27c-.18.08-.37.15-.56.21a5.16,5.16,0,0,1-.57.15,5,5,0,0,1-.58.08A4.94,4.94,0,0,1,106.23,89.64Z" style="fill:#f9b9a2"/><path d="M75.8,91.37c-1.24-23,13.83-44.66,33.66-43.55,21.88,1.22,21.44-5.62,27.37-1.53-7-11-29.93-18.1-42.53-17.42C74.47,29.93,59.4,49.43,60.64,72.41c.78,14.46,6.75,33.46,16.81,40.4C73.42,106.48,76.25,99.75,75.8,91.37Z" style="fill:#edad4f"/><path d="M124.3,39.45c-9-5.78-22.42-9.12-30.79-8.67-17.85,1-31.41,18.51-30.29,39.2A69.47,69.47,0,0,0,69,94a1.81,1.81,0,0,0,3.44-.65v-.09A71,71,0,0,1,69.27,76c-1.12-20.69,12.45-38.24,30.29-39.2,6.67-.36,16.55,1.7,24.85,5.47" style="fill:#f2c78f"/><path d="M121.16,44.63s16.44,10.17,25.3,33.54S164.6,82,164.6,82l-6.51-15.4-13.15-22Z" style="fill:#edad4f"/><path d="M150.48,65.9C146.69,55.25,139.4,43.53,128,43.39h0s12.9,8.5,19.85,28,14.24,3.22,14.24,3.22l-.41-1C158.95,76.42,154.65,77.63,150.48,65.9Z" style="fill:#f2c78f"/><ellipse cx="151.68" cy="123.53" rx="3.83" ry="3.44" style="fill:#fff"/><ellipse cx="78.3" cy="123.53" rx="3.83" ry="3.44" style="fill:#fff"/><path d="M117.81,119.38c0,1.84-1.34.58-3,.58s-3,1.26-3-.58,1.34-6.08,3-6.08S117.81,117.54,117.81,119.38Z" style="fill:#f9b9a2"/><path d="M128.16,120.51a.84.84,0,0,1,.15,1.62,33.36,33.36,0,0,1-13.48,3.1,33.3,33.3,0,0,1-13.33-3,.85.85,0,0,1,.19-1.63,76.6,76.6,0,0,1,9.9-1.8c1.21-.13,1.93.79,3.24.79,1.06,0,2.65-1,3.65-.86A51.94,51.94,0,0,1,128.16,120.51Z" style="fill:#921d15"/><path d="M101,121.49a.86.86,0,0,0,.54.7,33.3,33.3,0,0,0,13.33,3,33.36,33.36,0,0,0,13.48-3.1.88.88,0,0,0,.52-.63Z" style="fill:#a51c1c"/><path d="M122.18,107.61a6.81,6.81,0,1,1-13.61,0c0-3.87,3-14.6,6.8-14.6S122.18,103.74,122.18,107.61Z" style="fill:#f4a790"/><ellipse cx="121.1" cy="108.96" rx="4.6" ry="4.74" style="fill:#f4a790"/><ellipse cx="108.62" cy="108.96" rx="4.6" ry="4.74" style="fill:#f4a790"/><path d="M108.24,84.77l0-.06s0-.1,0-.16.08-.31.13-.51,0-.2.07-.29l.07-.3.07-.3c0-.09,0-.2.07-.29s0-.2.08-.3a2.62,2.62,0,0,1,.08-.3,2.54,2.54,0,0,1,.09-.31c0-.1.06-.2.09-.3s.08-.19.1-.28a2.43,2.43,0,0,1,.09-.23c0-.07.06-.12.07-.16l0-.06.05,0a1.27,1.27,0,0,1,.14.11,1.82,1.82,0,0,1,.19.18,1.32,1.32,0,0,1,.2.26,2.64,2.64,0,0,1,.18.34,3.6,3.6,0,0,1,.12.42,2.8,2.8,0,0,1,0,.47,3.21,3.21,0,0,1-.07.49,2.58,2.58,0,0,1-.18.47,1.88,1.88,0,0,1-.27.41,2,2,0,0,1-.32.32,2,2,0,0,1-.35.21,1.57,1.57,0,0,1-.33.11,1.26,1.26,0,0,1-.27,0h-.24Z" style="fill:#f9b9a2"/><path d="M121.37,84.77h-.24a1.26,1.26,0,0,1-.27,0,1.57,1.57,0,0,1-.33-.11,2,2,0,0,1-.35-.21,2,2,0,0,1-.32-.32,1.88,1.88,0,0,1-.27-.41,2.58,2.58,0,0,1-.18-.47,3.21,3.21,0,0,1-.07-.49,2.8,2.8,0,0,1,0-.47,3.6,3.6,0,0,1,.12-.42,2.64,2.64,0,0,1,.18-.34,1.31,1.31,0,0,1,.2-.26,1.82,1.82,0,0,1,.19-.18,1.27,1.27,0,0,1,.14-.11l.05,0,0,.06s.05.09.07.16a2.43,2.43,0,0,1,.09.23c0,.09.07.18.1.28s.06.2.09.3a2.55,2.55,0,0,1,.09.31,2.62,2.62,0,0,1,.08.3c0,.1.06.2.08.3s0,.2.07.29l.07.3.07.3c0,.1,0,.2.07.29s.09.37.13.51,0,.13,0,.16Z" style="fill:#f9b9a2"/><ellipse cx="117.95" cy="108.96" rx="1.37" ry="1.19" style="fill:#fff;opacity:0.51"/><path d="M50.12,190.77s-17.51,77.8-16.38,150.65H66.18l8-134" style="fill:#13162b"/><path d="M82.29,163.15,71.57,198.61H86l-6.6,18.14s38.62,25.53,37.25,23.07-22-80.28-22-80.28Z" style="fill:#0b0f21"/><path d="M150.36,162.87l10.72,35.74H146.65l6.6,18.14S114.63,242.28,116,239.83s21.74-78.63,21.74-78.63Z" style="fill:#0b0f21"/><ellipse cx="93.81" cy="164.36" rx="5.36" ry="4.81" style="fill:#fff"/><ellipse cx="136.01" cy="164.36" rx="5.36" ry="4.81" style="fill:#fff"/><ellipse cx="110.69" cy="172.87" rx="5.36" ry="4.81" style="fill:#fff"/><ellipse cx="119.13" cy="172.87" rx="5.36" ry="4.81" style="fill:#fff"/><ellipse cx="102.25" cy="169.34" rx="5.36" ry="4.81" style="fill:#fff"/><ellipse cx="127.57" cy="169.91" rx="5.36" ry="4.81" style="fill:#fff"/><ellipse cx="111.63" cy="112.2" rx="2.74" ry="0.84" style="fill:#13162b"/><ellipse cx="119.33" cy="112.2" rx="2.74" ry="0.84" style="fill:#13162b"/></g></g></svg>