<svg id="Layer_1" data-name="Layer 1" xmlns="http://www.w3.org/2000/svg" viewBox="0 0 991.3 532.06"><title>gnp-01</title><path d="M469.58,338.46c0-5.28.94-7.16-5-10.3l-4.08-2V322.5h40.71v3.64l-4.15,1.63c-6.16,2.51-6.16,3.2-6,10.68l.06,30.09L489.62,370c-7.1,1.82-23.68,6.35-38.64,6.35-34.3,0-51.2-17.78-51.2-56.23,0-41.34,23.87-59.24,55.22-59.24,8.42,0,23.68,0,34.3,9a9.84,9.84,0,0,1,3.83,7.6,6.5,6.5,0,0,1-1,4l-7.6,14.76h-2.83c0-7.29-8.48-26.7-30.53-26.7-25.57,0-26.83,17.84-26.83,48,0,26.39,2.76,50.13,33.3,50.13,9.86,0,11.68-5.21,11.94-11.06Z" style="fill:#004b8d"/><path d="M511.42,370.5l7.29-3c6-2.32,6-6.66,6-16.27V282c0-5.34-1.51-8-5.65-10.81l-6.66-4.46v-3.64h30.22l1.82,1.13c3.33,4.46,10.24,16.46,19.54,29l32,43.6c1.32,1.82,2,2.64,2.64,2.64,1.32,0,1.32-1.63,1.32-4.65V282.11c0-7.6-.13-9.11-6.6-11.75l-9.48-3.64v-3.64h38v3.64L617,268.54c-7.1,2.83-8.48,4.46-8.48,15.39v65.34c0,10,.19,20.1.19,23.56l-1.13,1.32h-9.3l-1.82-1.32c-1.51-1.82-10.12-13.95-18.91-25.69l-38.82-51.89c-2.14-2.83-3.14-4.33-4-4.33-1.51,0-1.51,1.7-1.51,4v59.31c0,8,0,10.49,7,12.82l9.8,3.46v3.64H511.42Z" style="fill:#004b8d"/><path d="M631.6,370.5l7.29-2.45c5.47-1.82,5.65-4.84,5.65-15.27V281.1c0-7.92,0-9.93-5.65-11.75l-7.29-2.64v-3.64h55c19.22,0,38.07,4.15,38.07,29.34,0,23.06-17.21,37.32-44.1,37.32-1.13,0-2.64-.19-3.64-.19l-2.45-6,1.32-1.32c12.06-.31,26.7-5.28,24.63-28.58-1.63-18.16-6.91-21.55-21.8-21.55-10.11,0-10.81,1.51-10.81,5.65v75c0,11.12-.19,13.44,6.47,15.27l8.61,2.45v3.64H631.6Z" style="fill:#004b8d"/><rect x="399.79" y="389.03" width="349.39" height="2.32" style="fill:#004b8d"/><path d="M331.56,318A18.56,18.56,0,1,1,313,299.51,18.54,18.54,0,0,1,331.56,318" style="fill:#f68a33"/><path d="M282.12,287.07H242l8.1,24.82h20v-.06a36.73,36.73,0,0,0,36.69-36.69V255.22l-24.69-8.1Z" style="fill:#f68a33"/><path d="M282,348.95v40l24.81-8v-20h-.06a36.73,36.73,0,0,0-36.69-36.69H250.14L242,348.95Z" style="fill:#f68a33"/><path d="M343.87,349H384l-8.17-24.75h-20a36.72,36.72,0,0,0-36.63,36.69v19.92l24.69,8.1Z" style="fill:#f68a33"/><path d="M343.94,287.19v-40l-24.75,8v20a36.81,36.81,0,0,0,36.69,36.69h19.91L384,287.19Z" style="fill:#f68a33"/><path d="M740,263.07a9.27,9.27,0,1,0,9.23,9.3A9.28,9.28,0,0,0,740,263.07Zm0,16.77a7.13,7.13,0,0,1-7-7.48c0-4.4,3.14-7.48,7-7.48s7,3.08,7,7.48S743.86,279.84,740,279.84Z" style="fill:#004b8d"/><path d="M744.24,270.11c0-2.2-1.38-3.08-3.9-3.08h-3.89v10.55h1.95v-4.52h1.19l.44.69,2.26,3.83h2l-2.83-4.65A2.62,2.62,0,0,0,744.24,270.11ZM740,271.55H738.4v-3h1.76c.94,0,2.07.19,2.07,1.45s-.94,1.57-2.14,1.57Z" style="fill:#004b8d"/><path d="M408.21,438.24a14.83,14.83,0,0,1-7.26-1.62c-.81-.94-1.37-4-1.37-6.92a1.05,1.05,0,0,1,1.62-.13c.85,2.77,3.71,6.7,7.34,6.7a4.24,4.24,0,0,0,4.61-4.31c0-3.46-3.24-5.51-5.8-6.79-3.07-1.54-6.45-4.1-6.45-8.32,0-4.82,3.71-8.15,9.9-8.15a17.3,17.3,0,0,1,4.87.68,10.09,10.09,0,0,0,1.45.34,20.77,20.77,0,0,1,.77,6.1c-.21.51-1.28.56-1.66.13-.72-2.18-2.56-5.29-5.63-5.29-2.82,0-4.35,1.84-4.35,4,0,2,1.75,3.76,3.88,4.86l2.82,1.5c2.65,1.41,6,3.88,6,8.58,0,5.25-4.31,8.66-10.76,8.66" style="fill:#004b8d"/><path d="M453.79,420.49c0,1.2,0,1.28,1.2,1.28h2.95c2.22,0,2.73-.3,3.16-2.35l.21-1.07c.3-.34,1.37-.34,1.58,0-.09,1.37-.13,2.9-.13,4.52s0,3.16.13,4.52a1.22,1.22,0,0,1-1.58,0l-.21-1.07c-.43-2.05-.94-2.39-3.16-2.39H455c-1.15,0-1.2,0-1.2,1.32v5.08c0,2,.17,3.33.68,4.05s1.37,1.11,4.48,1.11c3.71,0,5.16-.13,7.51-5a1,1,0,0,1,1.58.21,24.23,24.23,0,0,1-1.79,6.83c-2.26-.09-6.36-.13-9.86-.13h-5.55c-2,0-4.14,0-7.34.13a1.22,1.22,0,0,1,0-1.49l2-.3c1.92-.3,2.18-.55,2.18-4.48V415.49c0-3.88-.26-4.14-2.18-4.52l-1.07-.21a1.07,1.07,0,0,1,.08-1.49c2,.09,4.1.13,6.15.13h9c2.73,0,5.16,0,5.72-.13,0,.68.34,3.76.55,6.62-.17.47-1.15.55-1.58.17a9.87,9.87,0,0,0-1.62-3.37,5.61,5.61,0,0,0-4.18-1.32H455.2c-1.41,0-1.41.09-1.41,1.67Z" style="fill:#004b8d"/><path d="M519.05,432.74c0,1.79.09,2.65.9,2.82.17.17.13.89-.13,1a19.09,19.09,0,0,0-3,.64,32.93,32.93,0,0,1-7.55,1,21.27,21.27,0,0,1-8.41-1.49,13.44,13.44,0,0,1-8.41-12.89A14.14,14.14,0,0,1,500,411a20.85,20.85,0,0,1,10-2.26c4.74,0,7.08,1,8.45,1,.13,1.28.17,4.27.6,6.87-.17.47-1.33.51-1.62.09-1.37-4-4.05-6-8-6-6.79,0-10.07,5.63-10.07,12.38,0,6.1,2.09,9.73,4.87,11.61a10.42,10.42,0,0,0,5.85,1.62c2.43,0,2.94-.47,2.94-3.24v-2.69c0-2.3-.26-2.56-2.3-2.86l-1.88-.26a1,1,0,0,1,0-1.5c3,.09,5.12.13,7.21.13s4.14,0,5.59-.13a1.22,1.22,0,0,1,0,1.5l-1,.17c-1.28.21-1.54.64-1.54,2.94Z" style="fill:#004b8d"/><path d="M549.36,415.53c0-4-.26-4.23-2.18-4.61l-1.07-.21a1,1,0,0,1,.09-1.45c2,.09,4.18.13,6.23.13s4.18,0,6.23-.13a1.16,1.16,0,0,1,0,1.45l-1,.17c-1.92.34-2.18.68-2.18,4.65v9.86c0,5,.55,10.5,7,10.5,5.46,0,7.13-4.78,7.13-10.63V420.1c0-3.46-.17-6.7-.64-7.81-.38-.9-1.32-1.15-2.48-1.37l-1.15-.21a1.29,1.29,0,0,1,0-1.45c2.31.09,4,.13,5.72.13,1.58,0,3.16,0,4.78-.13a1.3,1.3,0,0,1,0,1.45l-.77.17c-1.11.26-1.92.51-2.31,1.41-.47,1.11-.64,4.35-.64,7.81v4.78c0,4-.38,7.68-2.73,10.29-1.88,2-5,3.07-8.45,3.07-3.24,0-6.15-.51-8.45-2.39s-3.16-5-3.16-9.65Z" style="fill:#004b8d"/><path d="M603.78,416.3c0-4.27-.09-4.74-1.88-5l-1.15-.17a1,1,0,0,1,.09-1.49c3.2-.21,6.53-.38,10.59-.38,3.63,0,6.74.56,8.37,1.54a7,7,0,0,1,3.76,6.32c0,3.8-2.56,5.42-4.52,6.4-.43.21-.43.47-.21.94,2.82,5.72,4.56,8.92,6.61,10.67a5.23,5.23,0,0,0,2.86,1.19.82.82,0,0,1,.17,1.11,10.3,10.3,0,0,1-3.37.38c-3.93,0-6.4-1.41-8.28-4.48a53.09,53.09,0,0,1-3.33-6.61,2.17,2.17,0,0,0-2.26-1.49c-1.49,0-1.58.09-1.58.94v5.25c0,3.93.26,4.23,2.17,4.57l1.15.21a1.35,1.35,0,0,1,0,1.49c-2.26-.09-4.22-.13-6.27-.13s-4,0-6.23.13a1.22,1.22,0,0,1,0-1.49l1.15-.21c1.92-.34,2.18-.64,2.18-4.57Zm5.85,5.42c0,1.49.13,1.62,2.65,1.62a4.1,4.1,0,0,0,3.24-1.2,6.21,6.21,0,0,0,1.54-4.61c0-3.84-2.26-6.32-5.59-6.32-1.75,0-1.83.13-1.83,2.18Z" style="fill:#004b8d"/><path d="M680.52,423.35c0,9.31-6.23,14.9-15.41,14.9-8.58,0-14.81-5.63-14.81-14.55,0-8.45,6.32-15,15.24-15s15,6,15,14.64m-15.32-12.68c-5.25,0-8.06,4.91-8.06,12,0,5.21,1.83,13.57,8.79,13.57,5.59,0,7.77-5.46,7.77-12.38,0-7.3-3.2-13.23-8.49-13.23" style="fill:#004b8d"/><path d="M714.45,438.24a14.84,14.84,0,0,1-7.26-1.62c-.81-.94-1.37-4-1.37-6.92a1.06,1.06,0,0,1,1.62-.13c.85,2.77,3.71,6.7,7.34,6.7A4.24,4.24,0,0,0,719.4,432c0-3.46-3.24-5.51-5.8-6.79-3.07-1.54-6.44-4.1-6.44-8.32,0-4.82,3.71-8.15,9.9-8.15a17.32,17.32,0,0,1,4.87.68,10,10,0,0,0,1.45.34,20.79,20.79,0,0,1,.77,6.1c-.21.51-1.28.56-1.67.13-.72-2.18-2.56-5.29-5.63-5.29-2.82,0-4.35,1.84-4.35,4,0,2,1.75,3.76,3.88,4.86l2.82,1.5c2.65,1.41,6,3.88,6,8.58,0,5.25-4.31,8.66-10.75,8.66" style="fill:#004b8d"/><path d="M936.3,116.44a14.67,14.67,0,1,0,14.62,14.72A14.69,14.69,0,0,0,936.3,116.44Zm0,26.56c-6.17,0-11.14-5-11.14-11.84s5-11.84,11.14-11.84,11,4.87,11,11.84S942.37,143,936.3,143Z" style="fill:#004b8d"/><path d="M943,127.58c0-3.48-2.19-4.88-6.17-4.88h-6.17v16.71h3.08v-7.16h1.89l.7,1.09,3.58,6.07h3.18l-4.48-7.36C941.27,131.86,943,130.46,943,127.58Zm-6.66,2.29h-2.59v-4.77h2.78c1.49,0,3.29.3,3.29,2.29,0,2.19-1.49,2.49-3.38,2.49Z" style="fill:#004b8d"/><path d="M112.61,99.66l-2.42-1.57Q101,102.21,95.77,114.8q-5.1,14.67-10.17,29.33-7.88,22.29-9.94,22.29a9.73,9.73,0,0,1-1.58-.73q-3.4-3.39-10.18-30.78-2.19-9-4.37-18.06Q55.29,103.05,50,103a7.58,7.58,0,0,0-2.91.73,31.31,31.31,0,0,0-4.49.84q-2.3,1.1-2.18,5.94a19.58,19.58,0,0,0,2.06,7.51l4.24,8.72q3.64,7.51,8.37,32.35,4,19.14,6.06,28.71Q63.29,195,68,195a48.45,48.45,0,0,0,8.73-3q7.27-3.15,9.81-8.48,4.11-9,10.66-32.84,6.3-22.65,13.33-36.46,5-5.45,5-10.06a7.69,7.69,0,0,0-.85-2.54A6.55,6.55,0,0,0,112.61,99.66Z" style="fill:#004b8d"/><path d="M131.42,175.3a23.09,23.09,0,0,1,.74-5.46l1.6-13.11q-.24-3.64-5.57-8.25c-3.07,1.79-4.89,2.87-5.45,3.28q-2.91,13.59-2.91,16.14,0-.61.44,6.91.74,10.19,1,11.16,1.58,4.62,8.88,8a7.88,7.88,0,0,1,3.28-.54c1.62,0,2.6-.26,2.92-.67a21.68,21.68,0,0,0,.36-3.64,11,11,0,0,0-2.64-6.61A11.77,11.77,0,0,1,131.42,175.3Z" style="fill:#004b8d"/><path d="M135.47,103.8a6,6,0,0,0-1.57.24c-4.45.89-6.66,2.5-6.66,4.84,0-.24.08.77.24,3a11.81,11.81,0,0,0,1.82,5.21,6.81,6.81,0,0,0,6.66,3.26,10,10,0,0,0,3.27-.48c1.2-.64,1.73-2,1.57-4.23s-.16-4.35-.24-6.54Q139.47,103.79,135.47,103.8Z" style="fill:#004b8d"/><path d="M186.06,144.24a2.09,2.09,0,0,1-1.15-.12,4.24,4.24,0,0,0-1.15-.24q-2.43,0-3.27,6.66,0,2.05-5,11.27T168,173.2q-1.45-1.22-3.88-5.92a28,28,0,0,1-2.91-7.62,50.63,50.63,0,0,0-1.33-5.08,26.56,26.56,0,0,1-.36-7.25q-2.55-4.23-3.76-4.23a1.85,1.85,0,0,0-.67.18,1.72,1.72,0,0,1-.66.19,6.72,6.72,0,0,0-6.06,3.75,11.4,11.4,0,0,0-1.57,5.68q0,6.06,6.55,21.41,7.63,17.79,14.18,17.77,8.6.13,17-17.07,7-14.29,7.39-22.17.23-5.56-.91-7.26C190.2,144.45,188.57,144,186.06,144.24Z" style="fill:#004b8d"/><path d="M215.51,175.3a23.15,23.15,0,0,1,.75-5.46l1.6-13.11q-.25-3.64-5.57-8.25c-3.07,1.79-4.89,2.87-5.45,3.28q-2.91,13.59-2.91,16.14,0-.61.44,6.91.73,10.19,1,11.16,1.58,4.62,8.88,8a7.92,7.92,0,0,1,3.28-.54c1.62,0,2.59-.26,2.92-.67a21.85,21.85,0,0,0,.36-3.64,11,11,0,0,0-2.64-6.61A11.78,11.78,0,0,1,215.51,175.3Z" style="fill:#004b8d"/><path d="M219.56,103.8A6,6,0,0,0,218,104q-6.66,1.33-6.66,4.84c0-.24.08.77.24,3a11.89,11.89,0,0,0,1.82,5.21,6.82,6.82,0,0,0,6.66,3.26,10,10,0,0,0,3.27-.48q1.81-1,1.57-4.23t-.24-6.54Q223.55,103.79,219.56,103.8Z" style="fill:#004b8d"/><path d="M275,141.93q-6.92-2.79-11.14-2.79-9.1,0-13.82,3.57t-11.51,16.07c-.17,0-.58-.32-1.27-1a3.09,3.09,0,0,0-2.12-1c-1.62,0-2.67.57-3.16,1.7a17.91,17.91,0,0,0-.37,4.6,64.94,64.94,0,0,0,2.06,13.67c1.37,5.9,2.71,10,4,12.35h3.64q4.11-4.24,5.33-7.27.12-.24,1.33-10.28,1-9.32,4-14.28,4.24-7.26,13-7.26a54.46,54.46,0,0,1,7.63,1,53.92,53.92,0,0,0,8,1q3.38,0,4.72-1.34Q283.88,145.58,275,141.93Z" style="fill:#004b8d"/><path d="M366.88,184.34a7.76,7.76,0,0,0-4.42-1.57,5.43,5.43,0,0,0-1.69.33,5.3,5.3,0,0,1-1.7.33,27.41,27.41,0,0,1-12.24-2.68,16.82,16.82,0,0,1-9.08-10.09q6.3-2.18,7.88-2.19a1.3,1.3,0,0,1,1,.51,1.87,1.87,0,0,0,1.52.51q6.67,0,12.37-7.38,5.22-6.77,5.22-12.7a13.19,13.19,0,0,0-4-9.92,14.22,14.22,0,0,0-10.31-3.87q-10.56,0-18.44,11.76-6.55,10.06-6.55,18.79,0,13.21,10.05,20.24,8.49,5.81,20.84,5.82a26.2,26.2,0,0,0,6.18-1.33c3.71-1.13,5.57-2.27,5.57-3.39S368.38,185.4,366.88,184.34Zm-23.43-33.53q4.73-5.08,8-5.08a4.65,4.65,0,0,1,1.82.36,3.83,3.83,0,0,0,1.08.36v5.93c.08,1.37-1.72,3.06-5.43,5.07q-4.72,2.65-5.8,2.66a7.26,7.26,0,0,1-4.59-2Q339.46,155.28,343.45,150.81Z" style="fill:#004b8d"/><path d="M402.6,163.13q-8.83-10-9.08-14.89c.65-1.45,2-2.18,4.11-2.18a27.46,27.46,0,0,1,3,.24,25.89,25.89,0,0,0,2.85.24c1.85,0,2.93-.76,3.27-2.3a7,7,0,0,0-1.58-5.46,7.13,7.13,0,0,0-6.42-3.16A14.84,14.84,0,0,0,387.46,141q-4.23,4.72-4.12,9.93.24,5.58,9,16.12t8.78,12.13a.91.91,0,0,1-.36.84q-8.84,8.85-15.27,8.36a15,15,0,0,1-1.85-.23,9.13,9.13,0,0,0-3.6,2.52q-1.83,1.92-1.34,3.13a3.73,3.73,0,0,0,3.39,2.29l3.89.48a7.55,7.55,0,0,0,2,.24q6.68,0,15.16-5.93,9.33-6.41,9.33-13.19a8.27,8.27,0,0,0-.24-1.94Q411.81,173.67,402.6,163.13Z" style="fill:#004b8d"/><path d="M383.59,188.11h0Z" style="fill:#004b8d"/><path d="M471.17,175.3a22.89,22.89,0,0,1,.74-5.46l1.61-13.11q-.24-3.64-5.57-8.25c-3.07,1.79-4.88,2.87-5.45,3.28q-2.91,13.59-2.91,16.14c0-.4.15,1.9.44,6.91.49,6.79.81,10.52,1,11.16q1.56,4.62,8.87,8a7.91,7.91,0,0,1,3.29-.54c1.62,0,2.59-.26,2.92-.67a21.62,21.62,0,0,0,.36-3.64,11,11,0,0,0-2.63-6.61A11.72,11.72,0,0,1,471.17,175.3Z" style="fill:#004b8d"/><path d="M475.21,103.8a5.94,5.94,0,0,0-1.57.24c-4.45.89-6.66,2.5-6.66,4.84,0-.24.07.77.24,3a12,12,0,0,0,1.82,5.21,6.83,6.83,0,0,0,6.66,3.26,10,10,0,0,0,3.27-.48c1.22-.64,1.73-2,1.58-4.23s-.17-4.35-.24-6.54C479.58,105.57,477.88,103.8,475.21,103.8Z" style="fill:#004b8d"/><path d="M535.77,152.25q-8.72-11-14.65-11a19,19,0,0,0-5.59,1.33q-4.71,1.58-6.77,3.75c-.49-2-.94-4.1-1.34-6.2q-1.08-3.89-4.35-3.9c-4.46,0-7.92,6.07-10.43,18.19a106.18,106.18,0,0,0-2.53,21c0,.24,0,1-.13,2.37s-.12,2.44-.12,3.34q0,11.28,6.78,11.27,5.57,0,9-8.84,2.55-8.12,5-16.36,3.27-8.84,8.6-8.85t11,10.2q.36.62,8.74,18.8c3.14,6.71,5.71,10.07,7.76,10.07a7.14,7.14,0,0,0,6.16-3.34,13,13,0,0,0,2.32-7.58q0-2.18-5.94-13.1A134.61,134.61,0,0,0,535.77,152.25Z" style="fill:#004b8d"/><path d="M601.9,175.5a36.94,36.94,0,0,1-6.84,1.82,5.06,5.06,0,0,0-2,.37,4.7,4.7,0,0,1-1.88.36c-.68,0-1.55,0-2.59.12h-2.66q-9.09,0-9.08-9.94,0-10.18,6.9-13.82l12.59-3.64q6.91-2.16,6.91-8.48a6.61,6.61,0,0,0-1.7-3.76q-1.7-2.18-2.91-2.19a35.57,35.57,0,0,0-22.79,8.38q-11.75,9.59-11.77,23.91,0,10.93,5.76,17.11t15.69,6.19q2.54,0,13.82-4,12.12-4.37,14.79-7.29v-5c-2.75-1.29-4.57-1.94-5.45-1.94A38.79,38.79,0,0,0,601.9,175.5Z" style="fill:#004b8d"/><path d="M667.13,141.93q-6.91-2.79-11.15-2.79-9.09,0-13.81,3.57t-11.52,16.07c-.15,0-.57-.32-1.27-1a3.07,3.07,0,0,0-2.12-1c-1.62,0-2.67.57-3.15,1.7a17.7,17.7,0,0,0-.37,4.6,65.27,65.27,0,0,0,2.07,13.67c1.37,5.9,2.71,10,4,12.35h3.63q4.13-4.24,5.34-7.27.12-.24,1.33-10.28,1-9.32,4-14.28,4.23-7.26,13-7.26a54.44,54.44,0,0,1,7.64,1,54,54,0,0,0,8,1c2.26,0,3.84-.45,4.73-1.34Q676,145.58,667.13,141.93Z" style="fill:#004b8d"/><path d="M723.84,184.34a7.8,7.8,0,0,0-4.42-1.57,5.53,5.53,0,0,0-1.7.33,5.21,5.21,0,0,1-1.7.33,27.37,27.37,0,0,1-12.24-2.68,16.83,16.83,0,0,1-9.09-10.09q6.32-2.18,7.89-2.19a1.28,1.28,0,0,1,1,.51,2,2,0,0,0,1.53.51q6.67,0,12.38-7.38,5.22-6.77,5.22-12.7a13.2,13.2,0,0,0-4-9.92,14.23,14.23,0,0,0-10.32-3.87q-10.56,0-18.43,11.76-6.56,10.06-6.56,18.79,0,13.21,10.07,20.24,8.48,5.81,20.84,5.82a26.18,26.18,0,0,0,6.19-1.33c3.71-1.13,5.57-2.27,5.57-3.39S725.32,185.4,723.84,184.34Zm-23.43-33.53q4.72-5.08,8-5.08a4.52,4.52,0,0,1,1.81.36,3.87,3.87,0,0,0,1.09.36v5.93q.13,2.05-5.44,5.07-4.72,2.65-5.8,2.66a7.3,7.3,0,0,1-4.6-2Q696.42,155.28,700.41,150.81Z" style="fill:#004b8d"/><path d="M750.64,167.1a23.5,23.5,0,0,1,.74-5.46l1.62-13.1q-.25-3.64-5.57-8.25c-3.07,1.78-4.9,2.86-5.46,3.27q-2.91,13.59-2.91,16.14c0-.4.14,1.91.45,6.91q.71,10.21,1,11.17,1.59,4.61,8.88,8a8,8,0,0,1,3.28-.54c1.63,0,2.61-.27,2.92-.67a21.77,21.77,0,0,0,.37-3.64,11.12,11.12,0,0,0-2.63-6.62A11.68,11.68,0,0,1,750.64,167.1Z" style="fill:#004b8d"/><path d="M805,145.45a11.51,11.51,0,0,0-8.6,3.63A60.89,60.89,0,0,0,791.1,157c-2.1,3.46-4.15,5.81-6.18,7a177.25,177.25,0,0,1-3-31.63V111c0-.08.15-1,.51-2.85a26.67,26.67,0,0,0,.51-4.91q0-6.78-4.85-9.45-2.3,2.31-4.35,8.74c-1.29,4-1.95,6.86-1.95,8.72v38.66c0-.08.49,1.82,1.47,5.7a80.8,80.8,0,0,1,2.05,13.08,37.94,37.94,0,0,1-.43,7.64,31.39,31.39,0,0,0-.43,6.79q.36,2.3,3.27,4.37a8.17,8.17,0,0,0,4.59,1.81,2.93,2.93,0,0,0,1.7-.42,2.92,2.92,0,0,1,1.7-.43q.36,0,6.42,2.29a130.6,130.6,0,0,0,13.56,4,77.07,77.07,0,0,0,17.55,2.18c3.15,0,6.33-1.94,9.57-5.81s4.84-7.27,4.84-10.18q0-12.22-8.12-22.88Q819.94,145.45,805,145.45Zm20,37q-1.81,1.81-7.16,1.81-6.42,0-24.84-7v-3.52q-.14-2.65,6.42-9.62t8.24-7q6,0,12.13,8,5.81,7.51,5.82,14A8,8,0,0,1,825,182.49Z" style="fill:#004b8d"/><path d="M854.4,139.67q0-4.61.61-13.95t.61-13.22q0-13.1-5.21-13.1-7.63-.24-8.11,22.43-.14,10.67,2.42,34.32,3.64,32.87,9.69,33a8,8,0,0,0,3.64-1.33q2.79-1.7,2.79-3.76.12-1.7-5.94-36.63A53.07,53.07,0,0,1,854.4,139.67Z" style="fill:#004b8d"/><path d="M913.58,184.34a7.76,7.76,0,0,0-4.42-1.57,5.53,5.53,0,0,0-1.7.33,5.26,5.26,0,0,1-1.69.33,27.38,27.38,0,0,1-12.24-2.68,16.78,16.78,0,0,1-9.09-10.09q6.3-2.18,7.88-2.19a1.33,1.33,0,0,1,1,.51,1.87,1.87,0,0,0,1.51.51q6.68,0,12.38-7.38,5.22-6.77,5.22-12.7a13.18,13.18,0,0,0-4-9.92,14.19,14.19,0,0,0-10.3-3.87q-10.56,0-18.44,11.76-6.54,10.06-6.55,18.79,0,13.21,10.06,20.24,8.48,5.81,20.84,5.82a26.07,26.07,0,0,0,6.19-1.33c3.72-1.13,5.57-2.27,5.57-3.39S915.08,185.4,913.58,184.34Zm-23.43-33.53q4.72-5.08,8-5.08a4.67,4.67,0,0,1,1.82.36,3.67,3.67,0,0,0,1.09.36v5.93q.12,2.05-5.44,5.07c-3.16,1.77-5.08,2.66-5.81,2.66a7.25,7.25,0,0,1-4.59-2Q886.17,155.28,890.15,150.81Z" style="fill:#004b8d"/><path d="M757.57,98.83c-1.86.08-3.48,1.38-4.85,3.87q-5.94,10.89-6,11.13c-4.2,5.65-7.08,9.39-8.6,11.24q-3.4,4.23-3.41,5.2a10.29,10.29,0,0,0,1.22,2.89,4.58,4.58,0,0,0,3.75,1.82q7.14,0,15.51-11t8.24-19.47Q763.27,98.71,757.57,98.83Z" style="fill:#004b8d"/></svg>