<svg id="Layer_1" data-name="Layer 1" xmlns="http://www.w3.org/2000/svg" viewBox="0 0 55 150"><defs><style>.cls-1{fill:#4c4c4c;}.cls-2{fill:#fff;}</style></defs><title>iconos</title><circle class="cls-1" cx="27.5" cy="27.9" r="20"/><path class="cls-2" d="M32,33.39c2,0,2.9,0,4.32,0a0.92,0.92,0,0,0,.73-0.48c0.27-1.76.48-3.38,0.71-5.38H32c0-2-.1-3.21,0-4.73a1.82,1.82,0,0,1,2-1.73c1,0,2.09-.06,3.13,0A0.66,0.66,0,0,0,38,20.2c0-1.31,0-2.63,0-3.93a1,1,0,0,0-.59-0.76c-2.13-.1-4.27-0.46-6.39.09A6.82,6.82,0,0,0,25.82,22c-0.06,1.75,0,3.51,0,5.39-1.5,0-2.88,0-4.27,0a0.73,0.73,0,0,0-.91.92c0,1.46,0,2.92,0,4.38,0,0.54-.17.73,0.37,0.72,1.43,0,3,0,4,0V47.82a18.9,18.9,0,0,0,2.11.08A19.77,19.77,0,0,0,32,47.36v-14Z"/><path class="cls-2" d="M39,117.16a8.83,8.83,0,0,1-2.52.69,4.39,4.39,0,0,0,1.93-2.42,8.84,8.84,0,0,1-2.79,1.06,4.4,4.4,0,0,0-7.6,3,4.36,4.36,0,0,0,.11,1,12.51,12.51,0,0,1-9.06-4.56,4.35,4.35,0,0,0,1.36,5.83,4.4,4.4,0,0,1-2-.55v0.05A4.38,4.38,0,0,0,22,125.54a4.43,4.43,0,0,1-2,.07,4.4,4.4,0,0,0,4.11,3,8.86,8.86,0,0,1-5.46,1.87,9,9,0,0,1-1-.06A12.52,12.52,0,0,0,36.84,120q0-.28,0-0.57A8.9,8.9,0,0,0,39,117.16h0Z"/><circle class="cls-1" cx="27.5" cy="123.6" r="20"/><path class="cls-2" d="M40.41,116.14a10.66,10.66,0,0,1-3,.83,5.29,5.29,0,0,0,2.33-2.92,10.66,10.66,0,0,1-3.37,1.28,5.32,5.32,0,0,0-9.18,3.61,5.26,5.26,0,0,0,.14,1.2,15.1,15.1,0,0,1-10.94-5.51,5.25,5.25,0,0,0,1.64,7,5.31,5.31,0,0,1-2.4-.66s0,0,0,.07a5.28,5.28,0,0,0,4.26,5.17,5.35,5.35,0,0,1-2.4.09,5.31,5.31,0,0,0,5,3.66,10.69,10.69,0,0,1-6.59,2.26,10.81,10.81,0,0,1-1.27-.07,15.11,15.11,0,0,0,23.23-12.63q0-.34,0-0.68a10.74,10.74,0,0,0,2.65-2.73h0Z"/><circle class="cls-1" cx="27.5" cy="75.75" r="20"/><g id="_8ZFo1G" data-name="8ZFo1G"><path class="cls-2" d="M27,62.78h1.57l0.18,0a12.71,12.71,0,0,1,3.83.9,12.59,12.59,0,0,1,5.37,4.12,12.25,12.25,0,0,1,2.43,5.92c0,0.29.08,0.59,0.12,0.88v1.57a1.33,1.33,0,0,0,0,.18,12.84,12.84,0,0,1-.81,3.56,12.6,12.6,0,0,1-2.88,4.4A12.37,12.37,0,0,1,34,86.4a12.85,12.85,0,0,1-12.3.16,0.45,0.45,0,0,0-.31,0l-2.25.71L15.86,88.3l-1.25.42-0.08-.08c0-.1.1-0.19,0.13-0.3l0.84-2.49c0.42-1.25.85-2.49,1.26-3.74a0.48,0.48,0,0,0,0-.33c-0.15-.32-0.34-0.63-0.49-1a12.54,12.54,0,0,1,1.3-13A12.75,12.75,0,0,1,26,62.9Zm-9.23,22.8,0.47-.14,3.45-1.1a0.44,0.44,0,0,1,.39,0c0.5,0.27,1,.56,1.52.79a10.23,10.23,0,0,0,4.27.85,10.47,10.47,0,0,0,4.35-1,10.69,10.69,0,0,0,5.15-5,10.49,10.49,0,0,0-1-11,10.64,10.64,0,0,0-2.55-2.46,10.44,10.44,0,0,0-4.34-1.74,10.74,10.74,0,0,0-10.69,4.71,10.37,10.37,0,0,0-1.47,3.42,10.73,10.73,0,0,0-.24,3A10.42,10.42,0,0,0,19,81.5a0.31,0.31,0,0,1,0,.32q-0.52,1.52-1,3Z"/><path class="cls-2" d="M23.79,69.67h0.36a0.48,0.48,0,0,1,.46.26c0.16,0.34.32,0.69,0.46,1s0.4,1,.62,1.47a0.8,0.8,0,0,1-.11.87c-0.21.29-.44,0.56-0.68,0.84a0.48,0.48,0,0,0-.06.64,8.51,8.51,0,0,0,3.23,3.16c0.35,0.19.72,0.35,1.09,0.51a0.45,0.45,0,0,0,.62-0.17l0.93-1.14A0.48,0.48,0,0,1,31.4,77l2.53,1.19a0.42,0.42,0,0,1,.27.48A8.58,8.58,0,0,1,34,79.77a1.77,1.77,0,0,1-.78.9,3.2,3.2,0,0,1-2.78.57c-0.68-.19-1.34-0.42-2-0.66A10,10,0,0,1,24.53,78a15.59,15.59,0,0,1-2.36-3.15,4.21,4.21,0,0,1-.54-3,3.37,3.37,0,0,1,1.19-1.89A1.2,1.2,0,0,1,23.79,69.67Z"/></g></svg>